<svg width="235" height="201" viewBox="0 0 235 201" fill="none" xmlns="http://www.w3.org/2000/svg">
<path fill-rule="evenodd" clip-rule="evenodd" d="M234.789 0H234.789L234.789 201C194.609 201 154.43 201 113.901 201H2.73226e-05L0 0V201H234.789V0ZM113.193 98.6248C111.819 97.9469 111.023 98.9536 110.301 99.8674C110.223 99.9668 110.145 100.065 110.068 100.16C101.527 110.624 93.5897 121.503 87.0485 133.356C84.8585 137.324 82.6769 141.288 80.9649 145.491C76.7781 154.655 73.5857 163.599 71.8032 173.002C70.9014 177.759 69.9461 178.108 66.0788 175.15C62.0043 172.034 59.8469 167.982 58.7637 162.933C56.5923 152.813 54.7572 142.593 53.9109 132.347C53.7239 130.082 53.4948 127.815 53.2654 125.544C52.3756 116.736 51.4813 107.884 53.0194 98.9986C53.0478 98.8348 53.0802 98.6629 53.1136 98.4856C53.4304 96.8068 53.8394 94.6385 51.7596 94.2096C50.1082 93.869 49.5657 95.6811 49.114 97.19C49.0333 97.4595 48.9555 97.7193 48.8748 97.9555C42.9816 115.203 39.7644 132.949 38.9918 151.154C38.8343 154.865 38.4414 158.57 38.0339 162.264C38.0069 162.508 37.9916 162.759 37.9762 163.013C37.9082 164.128 37.8372 165.291 36.7598 166.132C35.2052 166.13 34.3635 165.098 33.5462 164.097C33.3542 163.861 33.1635 163.628 32.9653 163.41C27.3188 157.194 23.7875 149.722 20.2618 142.262C19.8184 141.323 19.375 140.385 18.9276 139.45C13.3496 127.79 9.07115 115.678 6.77635 102.92C6.59199 101.895 6.48284 100.852 6.41655 99.8117C6.02822 93.72 6.85094 93.3126 12.5433 95.8691C16.2175 97.5191 17.7687 99.7614 18.2091 103.985C18.3777 105.602 18.5205 107.225 18.6634 108.85C19.1409 114.279 19.6201 119.726 21.0697 125.02C21.1248 125.221 21.1658 125.433 21.2071 125.646C21.3834 126.558 21.5657 127.5 22.8762 127.779C24.6172 126.896 24.4661 125.153 24.3408 123.708C24.3361 123.653 24.3313 123.598 24.3267 123.544C23.4254 112.92 24.3604 102.4 26.1013 91.9467C27.5353 83.3364 30.1271 75.0236 33.584 67.0068C34.5811 64.6945 36.7976 63.9733 38.9108 63.2857C39.4601 63.107 40.0024 62.9305 40.5145 62.729C49.0701 59.362 57.916 56.9299 67.0517 55.6527C70.4071 55.1836 72.5791 56.9078 72.3066 60.3623C71.7394 67.5528 71.0854 74.7364 70.4313 81.9201C70.0745 85.839 69.7177 89.7579 69.375 93.6779C68.5355 103.282 67.7215 112.888 66.9512 122.497C66.9477 122.54 66.9442 122.584 66.9406 122.627C66.843 123.82 66.7351 125.139 68.1303 125.981C70.0589 125.74 70.6772 124.073 71.1819 122.628C77.881 103.446 88.416 86.4114 100.454 70.2111C105.241 63.7685 110.393 57.6225 115.691 51.5949C117.288 49.7777 119.168 48.4908 121.615 48.2514C133.295 47.1088 144.854 47.6158 156.15 51.065C159.583 52.113 159.683 52.6606 157.306 55.5186C156.522 56.4622 155.888 57.3334 156.153 58.6262C156.453 60.0911 155.888 61.3093 155.147 62.5604C143.79 81.7323 134.902 101.993 128.398 123.299C128.2 123.946 127.978 124.587 127.756 125.227C127.447 126.116 127.138 127.005 126.896 127.912C126.658 128.804 126.57 129.897 127.679 130.316C128.754 130.723 129.295 129.868 129.767 129.122C129.793 129.081 129.819 129.039 129.845 128.999C130.845 127.434 131.816 125.852 132.788 124.27C134.61 121.302 136.433 118.334 138.444 115.474C158.146 87.4546 183.611 66.2927 214.431 51.4631C218.826 49.3484 223.233 47.2596 227.851 45.6329C230.429 44.7249 231.721 45.6325 231.944 48.1289C232.828 57.9747 233.528 67.8255 231.193 77.5931C230.994 78.4276 230.774 79.2592 230.555 80.0908C230.061 81.9589 229.568 83.827 229.303 85.7269C228.827 89.1564 226.669 90.5849 223.709 91.5924C206.463 97.4622 190.117 105.156 175.033 115.462C152.464 130.882 134.695 150.39 123.346 175.437C121.21 180.151 120.154 180.107 116.622 176.254C112.742 172.02 111.341 167.18 111.327 161.61C111.32 158.491 111.294 155.371 111.267 152.252C111.151 138.513 111.035 124.776 112.539 111.078C112.761 109.056 113.047 107.041 113.333 105.026C113.488 103.936 113.643 102.846 113.787 101.754C113.815 101.543 113.861 101.323 113.907 101.1C114.104 100.157 114.308 99.1751 113.193 98.6248Z" fill="white"/>
</svg>
