<svg width="114" height="67" viewBox="0 0 114 67" fill="none" xmlns="http://www.w3.org/2000/svg">
<path d="M110.943 0.17237C112.234 -0.282376 112.882 0.172289 112.994 1.42237C113.437 6.35346 113.787 11.2872 112.617 16.1792C112.293 17.5359 111.862 18.8783 111.671 20.2534C111.432 21.9709 110.352 22.6864 108.869 23.1909C100.232 26.1307 92.0447 29.9847 84.4903 35.146C73.1868 42.8689 64.2872 52.6388 58.6036 65.1831C57.5339 67.5441 57.0051 67.522 55.2364 65.5923C53.2929 63.4718 52.5907 61.048 52.5841 58.2583C52.564 49.8159 52.2671 41.3682 53.1915 32.9497C53.3628 31.3894 53.6102 29.8374 53.8165 28.2808C53.8902 27.724 54.2085 27.0539 53.5186 26.7134C52.7557 26.337 52.3487 26.9974 51.9532 27.4819C47.6758 32.7227 43.7009 38.1718 40.4249 44.1079C39.3281 46.0951 38.2354 48.0801 37.378 50.1851C35.2811 54.7745 33.6819 59.2539 32.7891 63.9634C32.3375 66.3461 31.8589 66.5209 29.9219 65.0396C27.8814 63.4789 26.8014 61.4491 26.2589 58.9204C25.1714 53.8519 24.252 48.7336 23.8282 43.6021C23.3712 38.0688 22.4129 32.4972 23.3819 26.8999C23.5306 26.0414 23.9021 24.7392 22.751 24.5015C21.7763 24.3005 21.5724 25.5969 21.3057 26.3774C18.3542 35.0156 16.7434 43.904 16.3565 53.022C16.2776 54.8803 16.0801 56.7355 15.876 58.5855C15.8032 59.2456 15.9005 60.0065 15.2383 60.523C14.2769 60.5216 13.8598 59.7342 13.338 59.1597C10.1543 55.655 8.31259 51.3528 6.30671 47.1597C3.5131 41.3198 1.37106 35.2533 0.221749 28.8638C0.129457 28.3506 0.0742776 27.8278 0.0410847 27.3071C-0.153363 24.2565 0.258788 24.0523 3.10944 25.3325C4.94949 26.1589 5.7267 27.282 5.94733 29.397C6.31389 32.9123 6.43671 36.4875 7.37995 39.9321C7.5253 40.4629 7.47456 41.1418 8.28425 41.3149C9.18927 40.8554 9.07346 39.9322 9.01081 39.1939C8.55942 33.8729 9.02856 28.6039 9.90046 23.3687C10.6187 19.0564 11.9162 14.8926 13.6475 10.8774C14.2766 9.41849 15.8751 9.22403 17.1182 8.73487C21.4031 7.04859 25.8338 5.83057 30.4092 5.19092C32.0897 4.95601 33.1774 5.81938 33.0411 7.54932C32.6021 13.115 32.0596 18.6728 31.5733 24.2349C31.1528 29.0447 30.7452 33.8567 30.3594 38.6694C30.3102 39.2832 30.2253 39.9771 30.9493 40.4146C31.9151 40.2936 32.2249 39.4586 32.4776 38.7349C35.8328 29.1276 41.1097 20.5956 47.1387 12.4819C49.5363 9.25538 52.1164 6.1774 54.7696 3.1587C55.5694 2.24867 56.5111 1.60387 57.7364 1.48389C63.586 0.911626 69.3759 1.16567 75.0333 2.89307C76.7522 3.41794 76.8024 3.69227 75.6124 5.12354C75.2194 5.59614 74.9026 6.03269 75.0352 6.68018C75.1854 7.41378 74.9025 8.02437 74.5313 8.65089C68.8434 18.2529 64.3914 28.3998 61.1339 39.0708C60.8974 39.8454 60.5905 40.6001 60.3819 41.3814C60.2628 41.8278 60.2186 42.3754 60.7735 42.5855C61.3416 42.8003 61.6122 42.3108 61.8585 41.9253C63.2985 39.6708 64.6212 37.3475 66.1651 35.1519C76.0327 21.1188 88.7871 10.5195 104.223 3.09229C106.424 2.03324 108.631 0.987059 110.943 0.17237Z" fill="#660099"/>
</svg>
